<svg width="98" height="23" viewBox="0 0 98 23" fill="none" xmlns="http://www.w3.org/2000/svg">
<path d="M0.534 22L0.898 0.939998H4.876L7.866 15.526L10.986 0.939998H14.834L15.224 22H12.364L12.052 7.362L9.062 22H6.748L3.706 7.31L3.42 22H0.534ZM18.434 22V0.939998H27.274V3.644H22.282V9.702H26.208V12.38H22.282V19.348H27.326V22H18.434ZM29.6551 22V0.939998H34.6211C36.3371 0.939998 37.6718 1.174 38.6251 1.642C39.5958 2.11 40.2805 2.82933 40.6791 3.8C41.0951 4.77067 41.3031 6.00133 41.3031 7.492V15.188C41.3031 16.7133 41.0951 17.9873 40.6791 19.01C40.2805 20.0153 39.6045 20.7693 38.6511 21.272C37.7151 21.7573 36.4238 22 34.7771 22H29.6551ZM33.5031 19.322H34.6731C35.5571 19.322 36.1898 19.166 36.5711 18.854C36.9525 18.542 37.1865 18.0913 37.2731 17.502C37.3598 16.8953 37.4031 16.1587 37.4031 15.292V7.232C37.4031 6.38267 37.3425 5.698 37.2211 5.178C37.0998 4.658 36.8485 4.27667 36.4671 4.034C36.0858 3.79133 35.4705 3.67 34.6211 3.67H33.5031V19.322ZM49.5318 22.286C48.2665 22.286 47.2091 22.0433 46.3598 21.558C45.5105 21.0553 44.8691 20.3273 44.4358 19.374C44.0025 18.4207 43.7598 17.2507 43.7078 15.864L47.0098 15.214C47.0445 16.0287 47.1398 16.748 47.2958 17.372C47.4691 17.996 47.7205 18.4813 48.0498 18.828C48.3965 19.1573 48.8471 19.322 49.4018 19.322C50.0258 19.322 50.4678 19.14 50.7278 18.776C50.9878 18.3947 51.1178 17.918 51.1178 17.346C51.1178 16.4273 50.9098 15.6733 50.4938 15.084C50.0778 14.4947 49.5231 13.9053 48.8298 13.316L46.1778 10.976C45.4325 10.3347 44.8345 9.624 44.3838 8.844C43.9505 8.04667 43.7338 7.06733 43.7338 5.906C43.7338 4.242 44.2191 2.95933 45.1898 2.058C46.1605 1.15667 47.4865 0.705998 49.1678 0.705998C50.1558 0.705998 50.9791 0.861998 51.6378 1.174C52.2965 1.46867 52.8165 1.88467 53.1978 2.422C53.5965 2.95933 53.8911 3.57467 54.0818 4.268C54.2725 4.944 54.3938 5.66333 54.4458 6.426L51.1698 6.998C51.1351 6.33933 51.0571 5.75 50.9358 5.23C50.8318 4.71 50.6325 4.30267 50.3378 4.008C50.0605 3.71333 49.6445 3.566 49.0898 3.566C48.5178 3.566 48.0758 3.75667 47.7638 4.138C47.4691 4.502 47.3218 4.96133 47.3218 5.516C47.3218 6.22667 47.4691 6.816 47.7638 7.284C48.0585 7.73467 48.4831 8.20267 49.0378 8.688L51.6638 11.002C52.5305 11.73 53.2671 12.588 53.8738 13.576C54.4978 14.5467 54.8098 15.7253 54.8098 17.112C54.8098 18.1173 54.5845 19.01 54.1338 19.79C53.7005 20.57 53.0851 21.1853 52.2878 21.636C51.5078 22.0693 50.5891 22.286 49.5318 22.286ZM62.8955 22.286C61.4048 22.286 60.2175 22.0087 59.3335 21.454C58.4495 20.8993 57.8168 20.102 57.4355 19.062C57.0541 18.022 56.8635 16.7913 56.8635 15.37V7.492C56.8635 6.07067 57.0541 4.85733 57.4355 3.852C57.8168 2.82933 58.4495 2.04933 59.3335 1.512C60.2175 0.974665 61.4048 0.705998 62.8955 0.705998C64.4208 0.705998 65.6168 0.974665 66.4835 1.512C67.3675 2.04933 68.0001 2.82933 68.3815 3.852C68.7801 4.85733 68.9795 6.07067 68.9795 7.492V15.396C68.9795 16.8 68.7801 18.022 68.3815 19.062C68.0001 20.0847 67.3675 20.882 66.4835 21.454C65.6168 22.0087 64.4208 22.286 62.8955 22.286ZM62.8955 19.452C63.5368 19.452 64.0048 19.3133 64.2995 19.036C64.6115 18.7587 64.8195 18.3773 64.9235 17.892C65.0275 17.4067 65.0795 16.878 65.0795 16.306V6.608C65.0795 6.01867 65.0275 5.49 64.9235 5.022C64.8195 4.554 64.6115 4.19 64.2995 3.93C64.0048 3.65267 63.5368 3.514 62.8955 3.514C62.2888 3.514 61.8295 3.65267 61.5175 3.93C61.2055 4.19 60.9975 4.554 60.8935 5.022C60.7895 5.49 60.7375 6.01867 60.7375 6.608V16.306C60.7375 16.878 60.7808 17.4067 60.8675 17.892C60.9715 18.3773 61.1795 18.7587 61.4915 19.036C61.8035 19.3133 62.2715 19.452 62.8955 19.452ZM71.9258 22V0.939998H74.6038L79.7258 12.952V0.939998H82.8978V22H80.3498L75.2018 9.416V22H71.9258ZM91.9138 22.286C90.4231 22.286 89.2358 22.0087 88.3518 21.454C87.4678 20.8993 86.8351 20.102 86.4538 19.062C86.0725 18.022 85.8818 16.7913 85.8818 15.37V7.492C85.8818 6.07067 86.0725 4.85733 86.4538 3.852C86.8351 2.82933 87.4678 2.04933 88.3518 1.512C89.2358 0.974665 90.4231 0.705998 91.9138 0.705998C93.4391 0.705998 94.6351 0.974665 95.5018 1.512C96.3858 2.04933 97.0185 2.82933 97.3998 3.852C97.7985 4.85733 97.9978 6.07067 97.9978 7.492V15.396C97.9978 16.8 97.7985 18.022 97.3998 19.062C97.0185 20.0847 96.3858 20.882 95.5018 21.454C94.6351 22.0087 93.4391 22.286 91.9138 22.286ZM91.9138 19.452C92.5551 19.452 93.0231 19.3133 93.3178 19.036C93.6298 18.7587 93.8378 18.3773 93.9418 17.892C94.0458 17.4067 94.0978 16.878 94.0978 16.306V6.608C94.0978 6.01867 94.0458 5.49 93.9418 5.022C93.8378 4.554 93.6298 4.19 93.3178 3.93C93.0231 3.65267 92.5551 3.514 91.9138 3.514C91.3071 3.514 90.8478 3.65267 90.5358 3.93C90.2238 4.19 90.0158 4.554 89.9118 5.022C89.8078 5.49 89.7558 6.01867 89.7558 6.608V16.306C89.7558 16.878 89.7991 17.4067 89.8858 17.892C89.9898 18.3773 90.1978 18.7587 90.5098 19.036C90.8218 19.3133 91.2898 19.452 91.9138 19.452Z" fill="white"/>
</svg>
